<?xml version="1.0" encoding="UTF-8"?>
<svg xmlns="http://www.w3.org/2000/svg" xmlns:xlink="http://www.w3.org/1999/xlink" width="32px" height="30px" viewBox="0 0 31 30" version="1.1">
<defs>
<filter id="alpha" filterUnits="objectBoundingBox" x="0%" y="0%" width="100%" height="100%">
  <feColorMatrix type="matrix" in="SourceGraphic" values="0 0 0 0 1 0 0 0 0 1 0 0 0 0 1 0 0 0 1 0"/>
</filter>
<mask id="mask0">
  <g filter="url(#alpha)">
<rect x="0" y="0" width="31" height="30" style="fill:rgb(0%,0%,0%);fill-opacity:0.2;stroke:none;"/>
  </g>
</mask>
<clipPath id="clip1">
  <rect x="0" y="0" width="31" height="30"/>
</clipPath>
<g id="surface5" clip-path="url(#clip1)">
<path style=" stroke:none;fill-rule:nonzero;fill:rgb(100%,100%,100%);fill-opacity:1;" d="M 12.832031 10.515625 C 12.800781 10.414062 12.769531 10.316406 12.734375 10.21875 C 12.734375 10.21875 12.679688 10.210938 12.5625 10.183594 C 11.578125 10.011719 6.554688 9.3125 4.402344 12.558594 C 2.003906 16.167969 0 18.3125 0 18.3125 L 0.28125 18.640625 C 0.28125 18.640625 2.285156 16.492188 4.683594 12.882812 C 6.824219 9.648438 11.8125 10.332031 12.832031 10.515625 Z M 12.832031 10.515625 "/>
</g>
<mask id="mask1">
  <g filter="url(#alpha)">
<rect x="0" y="0" width="31" height="30" style="fill:rgb(0%,0%,0%);fill-opacity:0.101961;stroke:none;"/>
  </g>
</mask>
<clipPath id="clip2">
  <rect x="0" y="0" width="31" height="30"/>
</clipPath>
<g id="surface8" clip-path="url(#clip2)">
<path style=" stroke:none;fill-rule:nonzero;fill:rgb(0%,0%,0%);fill-opacity:1;" d="M 8.285156 15.773438 C 8.191406 15.695312 8.085938 15.625 7.972656 15.566406 C 9.367188 13.65625 10.902344 11.859375 12.558594 10.179688 C 12.667969 10.199219 12.730469 10.214844 12.730469 10.214844 C 14.226562 14.167969 8.285156 15.773438 8.285156 15.773438 Z M 8.285156 15.773438 "/>
</g>
<mask id="mask2">
  <g filter="url(#alpha)">
<rect x="0" y="0" width="31" height="30" style="fill:rgb(0%,0%,0%);fill-opacity:0.101961;stroke:none;"/>
  </g>
</mask>
<clipPath id="clip3">
  <rect x="0" y="0" width="31" height="30"/>
</clipPath>
<g id="surface11" clip-path="url(#clip3)">
<path style=" stroke:none;fill-rule:nonzero;fill:rgb(0%,0%,0%);fill-opacity:1;" d="M 19.378906 18.109375 C 17.539062 19.566406 15.597656 20.867188 13.554688 21.996094 C 13.53125 21.9375 13.496094 21.882812 13.464844 21.828125 C 13.464844 21.828125 15.746094 15.957031 19.363281 17.972656 C 19.371094 17.96875 19.375 18.019531 19.378906 18.109375 Z M 19.378906 18.109375 "/>
</g>
<mask id="mask3">
  <g filter="url(#alpha)">
<rect x="0" y="0" width="31" height="30" style="fill:rgb(0%,0%,0%);fill-opacity:0.2;stroke:none;"/>
  </g>
</mask>
<clipPath id="clip4">
  <rect x="0" y="0" width="31" height="30"/>
</clipPath>
<g id="surface14" clip-path="url(#clip4)">
<path style=" stroke:none;fill-rule:nonzero;fill:rgb(100%,100%,100%);fill-opacity:1;" d="M 22.058594 7.71875 L 22.054688 7.71875 L 19.195312 7.910156 C 19.179688 7.925781 19.164062 7.9375 19.152344 7.949219 C 18.855469 8.214844 18.632812 8.554688 18.492188 8.929688 L 22.519531 8.113281 Z M 22.058594 7.71875 "/>
</g>
<mask id="mask4">
  <g filter="url(#alpha)">
<rect x="0" y="0" width="31" height="30" style="fill:rgb(0%,0%,0%);fill-opacity:0.2;stroke:none;"/>
  </g>
</mask>
<clipPath id="clip5">
  <rect x="0" y="0" width="31" height="30"/>
</clipPath>
<g id="surface17" clip-path="url(#clip5)">
<path style=" stroke:none;fill-rule:nonzero;fill:rgb(100%,100%,100%);fill-opacity:1;" d="M 20.898438 9.550781 L 18.332031 9.910156 C 18.320312 9.679688 18.34375 9.449219 18.398438 9.222656 L 20.914062 9.292969 Z M 20.898438 9.550781 "/>
</g>
<mask id="mask5">
  <g filter="url(#alpha)">
<rect x="0" y="0" width="31" height="30" style="fill:rgb(0%,0%,0%);fill-opacity:0.2;stroke:none;"/>
  </g>
</mask>
<clipPath id="clip6">
  <rect x="0" y="0" width="31" height="30"/>
</clipPath>
<g id="surface20" clip-path="url(#clip6)">
<path style=" stroke:none;fill-rule:nonzero;fill:rgb(100%,100%,100%);fill-opacity:1;" d="M 6.273438 20.082031 C 6.273438 20.082031 6.867188 18.976562 8.042969 17.28125 C 10.628906 13.5625 16.023438 7.019531 24.046875 3.203125 C 26.21875 2.164062 28.488281 1.390625 30.832031 0.878906 C 30.960938 0.324219 31 0.0117188 31 0.0117188 C 28.390625 0.507812 25.847656 1.335938 23.441406 2.488281 C 15.410156 6.304688 10.019531 12.851562 7.433594 16.570312 C 6.257812 18.257812 5.664062 19.367188 5.664062 19.367188 C 6.210938 21.101562 6.929688 22.167969 7.589844 22.820312 C 7.117188 22.175781 6.652344 21.289062 6.273438 20.082031 Z M 6.273438 20.082031 "/>
</g>
</defs>
<g id="surface1">
<path style=" stroke:none;fill-rule:nonzero;fill:rgb(68.627451%,75.294118%,87.843137%);fill-opacity:1;" d="M 8.285156 15.773438 C 8.191406 15.695312 8.085938 15.625 7.972656 15.566406 C 5.503906 14.28125 0.496094 18.898438 0.496094 18.898438 L 0 18.3125 C 0 18.3125 2.003906 16.160156 4.402344 12.550781 C 6.554688 9.304688 11.578125 10.007812 12.5625 10.179688 C 12.671875 10.199219 12.734375 10.214844 12.734375 10.214844 C 14.226562 14.167969 8.285156 15.773438 8.285156 15.773438 Z M 8.285156 15.773438 "/>
<use xlink:href="#surface5" mask="url(#mask0)"/>
<path style=" stroke:none;fill-rule:nonzero;fill:rgb(68.627451%,75.294118%,87.843137%);fill-opacity:1;" d="M 16.082031 26.203125 C 12.3125 28.207031 9.996094 29.988281 9.996094 29.988281 L 9.496094 29.40625 C 9.496094 29.40625 14.789062 24.652344 13.558594 21.996094 C 13.535156 21.9375 13.503906 21.882812 13.46875 21.828125 C 13.46875 21.828125 15.75 15.957031 19.371094 17.972656 C 19.371094 17.972656 19.375 18.023438 19.378906 18.117188 C 19.421875 19.054688 19.511719 24.382812 16.082031 26.203125 Z M 16.082031 26.203125 "/>
<use xlink:href="#surface8" mask="url(#mask1)"/>
<use xlink:href="#surface11" mask="url(#mask2)"/>
<path style=" stroke:none;fill-rule:nonzero;fill:rgb(89.019608%,90.980392%,95.686275%);fill-opacity:1;" d="M 12.554688 22.378906 C 11.585938 22.890625 10.574219 23.386719 9.507812 23.863281 C 7.90625 24.578125 7.054688 23.753906 5.664062 19.367188 C 5.664062 19.367188 6.257812 18.261719 7.433594 16.570312 C 10.019531 12.847656 15.410156 6.300781 23.441406 2.488281 C 25.847656 1.339844 28.390625 0.507812 31 0.0117188 C 31 0.0117188 30.566406 3.386719 28.046875 7.871094 C 25.527344 12.355469 20.914062 17.949219 12.554688 22.378906 Z M 12.554688 22.378906 "/>
<path style=" stroke:none;fill-rule:nonzero;fill:rgb(68.627451%,75.294118%,87.843137%);fill-opacity:1;" d="M 24.15625 9.816406 C 24.15625 11.757812 22.628906 13.332031 20.746094 13.332031 C 18.863281 13.332031 17.335938 11.757812 17.335938 9.816406 C 17.335938 7.875 18.863281 6.300781 20.746094 6.300781 C 22.628906 6.300781 24.15625 7.875 24.15625 9.816406 Z M 24.15625 9.816406 "/>
<path style=" stroke:none;fill-rule:nonzero;fill:rgb(30.588235%,45.098039%,87.45098%);fill-opacity:1;" d="M 22.347656 11.691406 C 21.347656 12.605469 19.816406 12.507812 18.929688 11.472656 C 18.558594 11.039062 18.351562 10.488281 18.328125 9.910156 C 18.316406 9.679688 18.339844 9.449219 18.394531 9.222656 C 18.417969 9.125 18.445312 9.019531 18.484375 8.929688 C 18.621094 8.550781 18.851562 8.214844 19.140625 7.949219 C 19.15625 7.9375 19.167969 7.925781 19.183594 7.910156 C 20 7.203125 21.160156 7.128906 22.054688 7.726562 C 22.222656 7.835938 22.375 7.964844 22.507812 8.113281 L 22.554688 8.167969 C 23.441406 9.203125 23.347656 10.777344 22.347656 11.691406 C 22.347656 11.6875 22.347656 11.691406 22.347656 11.691406 Z M 22.347656 11.691406 "/>
<path style=" stroke:none;fill-rule:nonzero;fill:rgb(68.627451%,75.294118%,87.843137%);fill-opacity:1;" d="M 28.046875 7.871094 C 24.09375 6.144531 23.4375 2.488281 23.4375 2.488281 C 25.847656 1.335938 28.390625 0.507812 31 0.0117188 C 31 0.0117188 30.566406 3.386719 28.046875 7.871094 Z M 28.046875 7.871094 "/>
<path style=" stroke:none;fill-rule:nonzero;fill:rgb(68.627451%,75.294118%,87.843137%);fill-opacity:1;" d="M 12.554688 22.378906 C 11.902344 22.726562 11.226562 23.0625 10.527344 23.394531 C 10.191406 23.550781 9.855469 23.710938 9.507812 23.863281 C 8.988281 24.09375 7.054688 23.753906 5.664062 19.367188 C 5.664062 19.367188 5.859375 19.007812 6.238281 18.386719 C 6.53125 17.914062 6.929688 17.296875 7.433594 16.570312 C 7.433594 16.570312 7.957031 18.199219 9.390625 19.875 C 10.277344 20.914062 11.355469 21.765625 12.554688 22.378906 Z M 12.554688 22.378906 "/>
<path style=" stroke:none;fill-rule:nonzero;fill:rgb(89.019608%,90.980392%,95.686275%);fill-opacity:1;" d="M 10.527344 23.394531 C 10.191406 23.550781 9.855469 23.710938 9.507812 23.863281 C 8.988281 24.09375 7.054688 23.753906 5.664062 19.367188 C 5.664062 19.367188 5.859375 19.007812 6.238281 18.386719 C 6.238281 18.386719 8.105469 22.445312 10.527344 23.394531 Z M 10.527344 23.394531 "/>
<use xlink:href="#surface14" mask="url(#mask3)"/>
<use xlink:href="#surface17" mask="url(#mask4)"/>
<use xlink:href="#surface20" mask="url(#mask5)"/>
</g>
</svg>
